<?xml version="1.0" encoding="utf-8"?>
<!-- Generator: Adobe Illustrator 24.0.1, SVG Export Plug-In . SVG Version: 6.00 Build 0)  -->
<svg version="1.1" id="Layer_1" xmlns="http://www.w3.org/2000/svg" xmlns:xlink="http://www.w3.org/1999/xlink" x="0px" y="0px"
	 viewBox="0 0 20 20" style="enable-background:new 0 0 20 20;" xml:space="preserve">
<style type="text/css">
	.st0{fill:none;stroke:url(#Rectangle_1_);}
</style>
<linearGradient id="Rectangle_1_" gradientUnits="userSpaceOnUse" x1="-39.3324" y1="63.6842" x2="-39.6676" y2="62.6842" gradientTransform="matrix(11 0 0 -19 444.5 1210.5)">
	<stop  offset="0" style="stop-color:#C380FF"/>
	<stop  offset="1" style="stop-color:#64ADF2"/>
</linearGradient>
<path id="Rectangle" class="st0" d="M10,0.5c1.1,0,2.1,0.2,2.9,0.7c0.8,0.4,1.5,1.1,1.9,1.9c0.4,0.8,0.7,1.8,0.7,2.9v8
	c0,1.1-0.2,2.1-0.7,2.9c-0.4,0.8-1.1,1.5-1.9,1.9c-0.8,0.4-1.8,0.7-2.9,0.7s-2.1-0.2-2.9-0.7s-1.5-1.1-1.9-1.9
	c-0.4-0.8-0.7-1.8-0.7-2.9V6c0-1.1,0.2-2.1,0.7-2.9s1.1-1.5,1.9-1.9S8.9,0.5,10,0.5z"/>
</svg>
